<svg version="1.1" id="Layer_1" xmlns="http://www.w3.org/2000/svg" xmlns:xlink="http://www.w3.org/1999/xlink" x="0px" y="0px"
	 width="100%" viewBox="0 0 1600 709" enable-background="new 0 0 1600 709" xml:space="preserve">
<path fill="#F7F7F7" opacity="1.000000" stroke="none" 
	d="
M1.000004,247.000000 
	C1.000000,165.014481 1.000000,83.028954 1.000000,1.021716 
	C534.224670,1.021716 1067.449341,1.021716 1601.000000,1.021716 
	C1601.000000,208.687454 1601.000000,416.375061 1600.653198,624.471069 
	C1600.029419,624.708008 1599.588989,624.597839 1599.498657,624.356567 
	C1594.524048,611.067261 1584.391968,606.618408 1570.923096,606.915771 
	C1555.108521,607.265076 1539.279907,606.917297 1523.458496,607.025757 
	C1512.424194,607.101440 1503.770874,611.307678 1499.500122,622.123718 
	C1498.422485,624.853210 1497.656616,627.800781 1497.328979,630.713623 
	C1496.352783,639.392639 1496.616089,648.235718 1500.378906,656.103943 
	C1504.801514,665.351990 1513.450684,668.861450 1523.364990,668.960205 
	C1538.519531,669.111206 1553.676880,668.962769 1568.832764,669.017822 
	C1575.919922,669.043579 1577.991455,671.237427 1578.000000,678.350647 
	C1578.009399,686.119263 1576.338135,687.948914 1568.799683,687.982239 
	C1555.309448,688.041870 1541.818726,687.987427 1528.328125,688.006653 
	C1524.364014,688.012268 1521.214355,686.903809 1519.826172,682.699890 
	C1519.592285,681.991089 1518.458008,681.120117 1517.725708,681.106934 
	C1510.970947,680.984741 1504.213135,681.034912 1497.114624,681.034912 
	C1497.489136,683.435059 1497.936157,685.035522 1497.957397,686.641724 
	C1498.092529,696.847778 1503.494385,703.269958 1512.423706,707.341187 
	C1513.469238,707.817871 1514.150146,709.094299 1515.000000,710.000000 
	C1491.312378,710.000000 1467.624878,710.000000 1443.468628,709.531433 
	C1443.000000,704.066101 1442.712769,699.048035 1443.080811,694.078491 
	C1443.448730,689.111938 1441.424438,687.871033 1436.732666,687.910767 
	C1413.582764,688.106873 1390.430298,688.005981 1367.278809,687.995911 
	C1361.021729,687.993225 1360.271118,687.002502 1361.459473,681.005554 
	C1361.842407,679.073242 1362.081299,677.036133 1361.918701,675.085999 
	C1361.411621,669.008179 1361.324707,669.004150 1367.643433,669.002441 
	C1388.629761,668.996826 1409.615967,669.015869 1430.602295,668.988464 
	C1435.759644,668.981750 1436.424316,667.994385 1435.601196,663.116150 
	C1435.135376,660.356384 1435.053223,657.511230 1435.025269,654.702271 
	C1434.948853,647.004211 1434.996338,647.001160 1427.366455,647.000549 
	C1407.046387,646.999023 1386.725708,647.073120 1366.407593,646.872864 
	C1364.614868,646.855164 1361.380615,645.148926 1361.307861,644.060669 
	C1360.987305,639.257507 1361.579590,634.393311 1361.870972,629.000000 
	C1365.208862,629.000000 1368.670532,629.000061 1372.132202,629.000000 
	C1393.951294,628.999756 1415.770874,628.919067 1437.588867,629.070068 
	C1441.736938,629.098755 1443.332520,627.705383 1443.054199,623.565613 
	C1442.797974,619.752014 1442.813599,615.896057 1443.050049,612.079956 
	C1443.299194,608.061890 1441.539917,606.929443 1437.736816,606.941895 
	C1406.757446,607.043274 1375.777466,607.053284 1344.798218,606.928284 
	C1341.139893,606.913513 1339.939331,607.891846 1339.917358,611.688110 
	C1339.727539,644.459412 1339.333252,677.229553 1339.000000,710.000000 
	C1314.979126,710.000000 1290.958130,710.000000 1266.537476,709.645386 
	C1276.163452,705.405273 1283.441772,698.706421 1284.673706,687.741028 
	C1285.459839,680.743896 1285.007202,673.399780 1283.748047,666.458374 
	C1282.990601,662.283081 1280.120972,658.167969 1277.313721,654.755310 
	C1271.588379,647.795410 1263.042114,647.346619 1254.966919,647.116516 
	C1240.487427,646.704102 1225.987549,647.060608 1211.496948,646.968811 
	C1205.634888,646.931702 1203.896973,644.514832 1204.000122,637.232605 
	C1204.086426,631.130676 1205.917969,629.023499 1211.356567,629.011230 
	C1225.847778,628.978516 1240.339111,629.047180 1254.829956,628.967102 
	C1258.502197,628.946838 1261.181396,629.993042 1262.925415,633.516663 
	C1263.504272,634.686218 1265.400024,635.801147 1266.756104,635.881042 
	C1271.569702,636.164490 1276.410400,635.965332 1281.240479,635.998718 
	C1284.434692,636.020813 1285.280884,634.200439 1284.882690,631.439331 
	C1284.717896,630.297302 1284.209839,629.202820 1284.062744,628.060364 
	C1282.465454,615.662109 1273.386963,607.136475 1261.128540,607.039734 
	C1242.307861,606.891174 1223.483521,606.855713 1204.664185,607.076416 
	C1197.599976,607.159302 1187.689453,613.566284 1184.688721,620.723755 
	C1181.547485,628.216064 1181.957642,635.692383 1182.059814,643.264526 
	C1182.268677,658.731873 1192.623169,668.939575 1207.634888,668.988770 
	C1223.291870,669.040039 1238.949463,668.935913 1254.605957,669.035828 
	C1260.530151,669.073730 1263.015259,672.140503 1263.000122,678.771179 
	C1262.986084,684.911560 1260.375244,687.926025 1254.563232,687.966309 
	C1240.572510,688.063354 1226.578491,688.118042 1212.591064,687.883850 
	C1210.148560,687.842896 1206.100342,686.859497 1205.597534,685.366821 
	C1203.846680,680.169922 1200.101562,680.997498 1196.382202,680.997681 
	C1192.884399,680.997864 1189.377441,681.155701 1185.891357,680.953735 
	C1182.726929,680.770447 1181.726318,682.164185 1181.989990,685.089294 
	C1182.786133,693.921875 1187.795044,705.867798 1198.641846,708.032410 
	C1199.523560,708.208374 1200.218384,709.322021 1201.000000,710.000000 
	C1176.979126,710.000000 1152.958130,710.000000 1128.424805,709.622070 
	C1127.941406,706.476440 1127.994995,703.708740 1127.995605,700.941101 
	C1128.001709,672.643738 1128.021973,644.346375 1127.955566,616.049194 
	C1127.950195,613.763123 1127.503784,611.433533 1126.916260,609.215881 
	C1126.689575,608.359985 1125.514038,607.157715 1124.744019,607.137573 
	C1118.348267,606.970276 1111.946167,607.042725 1105.000000,607.042725 
	C1105.000000,641.894226 1105.000000,675.947144 1105.000000,710.000000 
	C1089.312378,710.000000 1073.624878,710.000000 1057.432129,709.655884 
	C1055.808594,707.898254 1054.814575,706.361206 1053.552368,705.090576 
	C1043.226685,694.695312 1032.843628,684.356750 1022.499512,673.979675 
	C1021.295044,672.771362 1020.220703,671.433289 1019.042175,670.105957 
	C1019.866150,669.506775 1020.114624,669.172424 1020.380920,669.157532 
	C1022.039612,669.064941 1023.704651,669.086182 1025.363281,668.992188 
	C1035.420532,668.421936 1043.908936,664.893372 1048.263672,655.204041 
	C1051.682251,647.597656 1051.803833,639.368347 1050.508057,631.243408 
	C1049.664307,625.953247 1049.412598,620.538086 1045.594727,615.939392 
	C1039.930664,609.116821 1032.334351,607.207825 1024.314331,607.106262 
	C1000.674805,606.806946 977.027893,607.124573 953.386902,606.890869 
	C948.813538,606.845581 947.886719,608.350220 947.908142,612.596680 
	C948.072021,645.063782 947.999207,677.532104 948.000000,710.000000 
	C902.979126,710.000000 857.958191,710.000000 812.468628,709.531372 
	C812.000183,697.739868 812.088074,686.416016 811.955872,675.094788 
	C811.905396,670.767090 813.236206,668.836243 818.007996,668.905396 
	C834.822083,669.149292 851.652039,669.355957 868.456055,668.877747 
	C880.121277,668.545776 889.853516,661.958984 891.919434,650.433594 
	C893.092651,643.888611 892.776672,637.065308 892.995056,630.362915 
	C893.390381,618.231262 881.289368,606.816040 867.678101,606.939880 
	C844.035461,607.155151 820.389404,606.994995 796.744812,607.000183 
	C790.018738,607.001709 790.003723,607.014404 790.002563,613.589905 
	C789.996948,645.726624 790.000000,677.863281 790.000000,710.000000 
	C773.979126,710.000000 757.958191,710.000000 741.463684,709.629395 
	C740.534546,708.230591 740.325806,706.958130 739.586304,706.210999 
	C728.924438,695.439758 718.166992,684.763062 707.514282,673.982910 
	C706.506287,672.962830 706.047668,671.399902 705.334045,670.088989 
	C706.691284,669.726257 708.038208,669.097900 709.407410,669.045105 
	C716.832886,668.758972 723.345032,666.536133 728.568909,660.967041 
	C735.808533,653.248962 736.809937,643.641296 735.847595,634.009827 
	C734.122986,616.748047 726.815735,606.984314 707.728088,606.994751 
	C684.928711,607.007202 662.127808,607.137146 639.331177,606.886963 
	C634.433655,606.833191 632.819214,607.883301 632.863098,613.145325 
	C633.132385,645.428406 632.999207,677.714722 633.000000,710.000000 
	C614.979126,710.000000 596.958191,710.000000 578.468628,709.531433 
	C578.000000,705.565247 578.018616,702.067505 577.996643,698.570007 
	C577.921570,686.634094 579.317322,688.036865 567.238159,688.012451 
	C545.419556,687.968323 523.600586,688.044922 501.782837,687.904846 
	C500.204010,687.894714 497.583923,686.846069 497.259369,685.745911 
	C496.338867,682.625793 496.024658,679.222900 496.079041,675.941406 
	C496.184753,669.569214 496.955719,669.001709 503.365814,669.000916 
	C524.185120,668.998230 545.004883,668.930420 565.823425,669.061401 
	C569.723572,669.085938 571.291443,667.756348 571.047546,663.833252 
	C570.820679,660.183167 570.740112,656.484680 571.064331,652.849365 
	C571.485840,648.123047 569.513672,646.872559 565.002075,646.914917 
	C544.351135,647.108826 523.697327,647.000122 503.044556,647.000000 
	C501.259125,647.000000 499.473694,647.000000 497.500946,647.000000 
	C496.938080,643.882996 496.208191,641.316528 496.053589,638.715759 
	C495.532806,629.954041 496.491180,629.000122 505.016266,629.000061 
	C527.501160,628.999817 549.986450,628.928162 572.470459,629.065552 
	C576.487854,629.090027 578.373352,627.955139 578.052673,623.684143 
	C577.791504,620.206116 577.743774,616.669312 578.062012,613.200867 
	C578.502319,608.401489 576.707703,606.872864 571.856628,606.902832 
	C541.378296,607.091248 510.897644,607.095459 480.419495,606.893616 
	C475.893707,606.863708 474.882385,608.268250 474.904938,612.566101 
	C475.075378,645.043335 474.999176,677.521851 475.000000,710.000000 
	C443.645782,710.000000 412.291534,710.000000 380.466248,709.571289 
	C379.664246,705.352417 379.075287,701.564087 379.047821,697.771667 
	C378.937927,682.606262 378.914703,667.438843 379.044525,652.273743 
	C379.098450,645.979370 379.865875,639.687805 379.835419,633.397278 
	C379.815796,629.339111 381.727783,628.883240 385.076385,628.939453 
	C395.073273,629.107239 405.076324,628.896606 415.073608,629.052124 
	C418.746857,629.109192 420.220337,627.762756 420.045532,624.077332 
	C419.848358,619.920105 419.870361,615.741211 420.037933,611.581421 
	C420.180237,608.049316 418.585205,606.952209 415.235413,606.959534 
	C384.069885,607.027649 352.904083,607.028625 321.738556,606.959473 
	C318.363464,606.952026 316.786377,608.099976 316.967682,611.608215 
	C317.130859,614.766296 316.997345,617.939575 317.000671,621.106140 
	C317.008148,628.146179 317.857513,628.982300 325.157745,628.995850 
	C334.157440,629.012634 343.165192,629.226318 352.153625,628.907715 
	C356.883942,628.740112 358.115967,630.494568 358.084229,635.002991 
	C357.908356,660.000916 357.999969,685.000793 358.000000,710.000000 
	C326.645782,710.000000 295.291534,710.000000 263.467957,709.531372 
	C262.998260,690.747375 262.997772,672.432007 262.997559,654.116699 
	C262.997406,640.629944 263.015808,627.143127 262.989319,613.656433 
	C262.977234,607.506104 262.476044,607.023926 256.557220,607.001648 
	C253.227188,606.989136 249.871048,607.260742 246.573502,606.933105 
	C242.259842,606.504639 240.822418,607.880005 240.890778,612.416016 
	C241.156693,630.061340 241.006393,647.713013 240.987701,665.362366 
	C240.985870,667.087524 240.823990,668.812500 240.682755,671.594238 
	C238.717590,669.909546 237.569717,669.046082 236.561615,668.042236 
	C228.096191,659.613159 219.656204,651.158569 211.208923,642.711304 
	C202.216080,633.718323 193.100052,624.844116 184.277344,615.687195 
	C178.990677,610.200317 173.977142,605.585388 165.204117,606.726196 
	C160.113266,607.388245 158.884033,608.786133 158.910095,613.595215 
	C159.084229,645.729370 159.000214,677.864929 159.000000,710.000000 
	C141.312439,710.000000 123.624878,710.000000 105.468460,709.531372 
	C104.999481,703.733948 104.795479,698.394775 105.067795,693.079956 
	C105.263611,689.258240 104.207085,687.731140 100.087227,687.908630 
	C92.607681,688.230896 85.104286,688.000122 77.610847,688.000061 
	C61.458321,687.999878 45.305779,687.985657 29.153288,688.009583 
	C25.276438,688.015320 22.477051,687.349365 23.853592,682.302307 
	C24.358976,680.449402 24.126883,678.301575 23.843803,676.344360 
	C22.898018,669.805359 23.460218,669.013123 29.893255,669.006470 
	C47.710972,668.988098 65.528717,669.000061 83.346451,669.000000 
	C98.102882,669.000000 98.102882,669.000000 97.999054,653.930542 
	C97.956833,647.803040 97.197792,647.011597 91.072891,647.006104 
	C72.589088,646.989502 54.105263,647.000061 35.621445,647.000000 
	C23.974424,647.000000 24.276693,646.989380 23.860107,635.153687 
	C23.674091,629.868896 25.431276,628.835205 30.334019,628.888611 
	C53.311169,629.139160 76.293167,628.914734 99.271919,629.075806 
	C103.567528,629.105896 105.414497,627.839539 105.058403,623.383911 
	C104.767471,619.743713 104.695526,616.029907 105.075806,612.406372 
	C105.556915,607.822144 103.677315,606.886780 99.413383,606.908203 
	C66.609604,607.073181 33.804615,606.999573 1.000000,607.000000 
	C1.000000,487.979095 1.000000,368.958221 1.333667,249.263947 
	C2.128714,249.066513 2.626980,249.512161 3.046232,250.022690 
	C67.429237,328.423920 131.806427,406.829895 196.184464,485.235199 
	C199.162643,488.862335 202.145645,492.485504 205.126419,496.110504 
	C205.299408,493.461761 204.818207,491.172913 204.042130,488.988800 
	C198.024185,472.052795 191.933472,455.142670 185.895538,438.213745 
	C175.049728,407.804535 164.224991,377.387848 153.908035,346.982910 
	C171.253571,346.994354 188.104553,347.500702 204.901260,346.766266 
	C212.199524,346.447144 216.068954,349.703949 219.935120,354.766144 
	C233.005081,371.879364 246.188873,388.906433 259.430695,405.887268 
	C269.818298,419.207977 280.423889,432.358734 290.808868,445.681427 
	C301.606354,459.533386 312.133514,473.598633 323.105042,487.309662 
	C324.687775,489.287567 328.086700,490.825409 330.658142,490.844818 
	C362.148438,491.082733 393.641174,491.014679 425.133148,490.951385 
	C426.654297,490.948334 428.174072,490.255035 429.694519,489.883179 
	C429.149139,488.430878 428.912933,486.742462 428.011444,485.562164 
	C416.847076,470.945160 405.616577,456.378326 394.341003,441.846741 
	C382.658936,426.791290 370.909637,411.788025 359.188538,396.762848 
	C350.727356,385.916473 342.255371,375.078522 333.805664,364.223175 
	C329.598267,358.817932 325.430145,353.382172 320.982819,347.621552 
	C330.639496,346.707764 339.636047,345.659027 348.662140,345.043732 
	C367.055298,343.789825 383.246582,336.697083 397.099976,325.140259 
	C417.411957,308.195435 426.304199,284.784698 429.737793,259.445282 
	C431.756042,244.550720 431.392700,229.327271 431.984619,214.247192 
	C432.685822,196.383316 430.868378,178.868546 425.034882,161.823334 
	C420.315399,148.033249 412.846527,135.880661 402.318512,126.082153 
	C381.897339,107.076035 356.211975,100.563660 329.441681,100.252777 
	C263.300568,99.484680 197.144531,99.981773 130.994568,100.056046 
	C127.721992,100.059723 124.450333,100.875374 120.891342,101.180580 
	C91.832619,68.600769 63.060802,36.153320 34.288979,3.705868 
	C33.899368,3.902911 33.509754,4.099953 33.120140,4.296996 
	C61.139503,85.182312 89.158867,166.067627 117.291656,247.280365 
	C115.396942,247.482330 114.417885,247.676361 113.438469,247.678146 
	C76.286743,247.746140 39.134979,247.798691 1.983217,247.813980 
	C1.655592,247.814117 1.327749,247.283051 1.000004,247.000000 
M624.500000,101.999603 
	C607.089478,102.262184 589.614929,100.851219 572.384399,104.955406 
	C555.297607,109.025352 539.835571,115.899353 527.066711,128.358109 
	C514.286743,140.827698 507.148987,156.216568 502.993683,173.216599 
	C498.407257,191.980515 497.681488,211.211792 498.296082,230.306183 
	C498.766144,244.909683 500.397308,259.547546 504.554535,273.885437 
	C507.815063,285.130737 512.816528,295.347839 519.658691,304.391602 
	C531.478271,320.014282 547.841492,329.311188 566.777710,333.942078 
	C582.777588,337.854919 598.999451,338.345001 615.490051,338.215973 
	C681.649048,337.698334 747.814453,338.000641 813.977478,338.000000 
	C835.976257,337.999786 857.976196,337.865723 879.973511,338.045776 
	C895.406982,338.172089 903.733337,347.185181 904.923706,363.272003 
	C905.389832,369.570465 905.441711,375.971832 904.880676,382.254730 
	C904.256531,389.244995 901.891724,395.861572 894.351196,398.244568 
	C888.791504,400.001556 882.930847,401.774933 877.191467,401.817719 
	C857.903931,401.961517 838.611206,401.290985 819.319214,401.020996 
	C810.904053,400.903229 802.485718,401.041626 794.069214,400.994812 
	C736.280151,400.673309 678.491150,400.342621 620.702576,399.957001 
	C618.950317,399.945312 617.119263,399.524231 615.465698,398.913116 
	C604.916931,395.014465 601.671204,386.348816 601.035156,376.175079 
	C600.659363,370.163849 599.822510,369.394043 593.837830,370.025085 
	C589.395447,370.493439 584.924622,370.940430 580.465027,370.955261 
	C554.300049,371.042267 528.134216,371.080780 501.970032,370.914032 
	C497.967743,370.888550 496.417786,372.111053 496.995636,376.022308 
	C498.681244,387.431915 499.654297,399.001953 502.199310,410.215698 
	C505.498840,424.754059 512.788391,437.589264 522.476990,448.933472 
	C541.595154,471.318695 566.466187,483.253937 595.179626,486.764587 
	C612.745361,488.912262 630.560852,489.790741 648.269653,489.861237 
	C727.764038,490.177765 807.260498,489.918152 886.755920,490.061462 
	C905.651306,490.095551 924.064941,488.507050 941.877808,481.337738 
	C953.848450,476.519806 964.414551,469.779449 972.853027,460.374359 
	C988.818115,442.580505 994.874756,420.489868 996.804504,397.336731 
	C997.880371,384.427734 996.887573,371.354492 997.029907,358.357513 
	C997.225342,340.523163 993.426086,323.548798 986.925537,307.017090 
	C980.613159,290.964050 969.858215,278.499390 955.577393,269.453125 
	C936.401428,257.305908 914.556213,253.402023 892.345886,253.181381 
	C857.395813,252.834213 822.434631,253.855286 787.477173,253.956055 
	C731.480774,254.117493 675.483337,254.042542 619.486755,253.911804 
	C615.414368,253.902298 611.234131,253.011108 607.299011,251.861908 
	C600.779602,249.957993 594.729797,245.696182 593.429443,239.424301 
	C591.436523,229.812210 591.545776,219.706543 591.397949,209.800903 
	C591.346191,206.329727 592.591248,202.523315 594.249390,199.404404 
	C598.465698,191.473373 605.971985,189.065781 614.396240,189.017532 
	C678.184570,188.652206 741.972900,188.228180 805.761902,188.061310 
	C826.551636,188.006927 847.344177,188.959122 868.133728,188.894318 
	C883.820801,188.845428 889.629395,199.971176 889.980957,211.762894 
	C890.177490,218.355423 890.686035,219.059677 897.128662,218.982773 
	C921.586609,218.690842 946.043457,218.312805 970.501343,218.013763 
	C977.499878,217.928177 984.506226,217.828018 991.497742,218.066437 
	C995.560547,218.205002 997.347778,216.897278 997.035217,212.655075 
	C996.012268,198.770996 994.158020,185.141388 988.983887,172.010406 
	C984.127380,159.685257 977.483276,148.677628 968.505188,138.972931 
	C952.805481,122.002663 933.142395,112.518150 911.042908,106.628029 
	C895.459290,102.474564 879.692688,101.160919 863.863464,101.147858 
	C808.241272,101.101952 752.618774,101.707352 696.995972,101.979019 
	C673.164551,102.095421 649.332031,101.999069 624.500000,101.999603 
M1465.658203,101.752457 
	C1464.360962,101.503532 1463.068115,101.063553 1461.765991,101.034630 
	C1444.725342,100.656181 1427.683716,100.077904 1410.641479,100.046928 
	C1347.141968,99.931496 1283.641968,99.943321 1220.142334,100.028557 
	C1194.860962,100.062492 1170.070435,103.127945 1146.141724,112.002235 
	C1131.706665,117.355705 1118.386230,124.256844 1106.305664,133.966400 
	C1085.766968,150.473785 1072.555542,171.647888 1066.141113,196.788651 
	C1063.059082,208.867584 1061.483398,221.599579 1061.223999,234.077408 
	C1060.555054,266.230042 1060.913452,298.406189 1061.045532,330.572174 
	C1061.093872,342.365326 1061.626343,354.157440 1061.999023,365.948090 
	C1062.469482,380.834930 1066.095459,394.887299 1071.593994,408.785400 
	C1078.530884,426.319244 1088.984131,440.894623 1102.843262,453.501587 
	C1116.507690,465.931366 1132.379517,474.579041 1149.522705,480.447906 
	C1170.299805,487.560852 1192.062500,490.834595 1214.022339,490.878662 
	C1256.146851,490.963165 1298.272949,490.336029 1340.398315,490.002136 
	C1382.356689,489.669617 1424.320190,489.604523 1466.269653,488.803314 
	C1476.249878,488.612640 1486.368164,486.693512 1496.092896,484.253906 
	C1509.428955,480.908447 1522.355591,476.348663 1534.554321,469.508240 
	C1555.832764,457.576447 1572.539307,441.564941 1583.668945,419.748260 
	C1593.870483,399.750458 1597.943726,378.355743 1599.067139,356.172882 
	C1599.312500,351.328674 1597.643799,349.832733 1592.823242,349.913483 
	C1562.700684,350.418274 1532.573975,350.680878 1502.448242,350.989624 
	C1495.252686,351.063354 1495.315186,351.006927 1494.964722,358.392609 
	C1494.839600,361.027069 1494.386475,363.652283 1493.981567,366.266022 
	C1492.358521,376.746643 1487.940674,385.391907 1478.338135,390.893982 
	C1469.167114,396.148834 1458.945679,396.819855 1448.961548,396.852417 
	C1368.296021,397.115631 1287.628906,397.120117 1206.963867,396.790527 
	C1199.888062,396.761627 1192.466797,394.672089 1185.828003,391.996246 
	C1170.989746,386.015594 1166.465454,372.520416 1166.241821,358.416870 
	C1165.570923,316.094360 1165.781250,273.752167 1166.210693,231.423355 
	C1166.284546,224.156143 1167.867676,216.330719 1170.929810,209.780502 
	C1178.523315,193.537277 1193.099243,186.290817 1210.127686,186.195358 
	C1288.958252,185.753403 1367.792969,185.902542 1446.625488,186.108566 
	C1458.055542,186.138443 1468.867310,189.485550 1478.137573,196.641693 
	C1491.244019,206.759155 1494.762573,221.263779 1495.873169,236.637726 
	C1496.172119,240.774811 1497.382568,242.166946 1501.472534,242.068207 
	C1510.633789,241.847061 1519.804077,241.999405 1528.970703,241.999344 
	C1550.470581,241.999176 1571.971069,241.924072 1593.469971,242.065308 
	C1597.493042,242.091751 1599.501953,240.944931 1599.012939,236.682022 
	C1598.617065,233.231201 1598.283936,229.770966 1598.021973,226.307419 
	C1596.941650,212.027344 1594.135742,198.145126 1588.832153,184.791199 
	C1583.005859,170.121124 1574.544434,157.212372 1563.483765,145.962723 
	C1554.597534,136.924911 1544.716553,129.339371 1533.710449,122.916130 
	C1522.016602,116.091499 1509.623779,111.345215 1496.663696,108.051147 
	C1486.739746,105.528793 1476.578247,103.940994 1465.658203,101.752457 
z"/>
<path fill="#0317FC" opacity="1.000000" stroke="none" 
	d="
M153.391449,346.974274 
	C164.224991,377.387848 175.049728,407.804535 185.895538,438.213745 
	C191.933472,455.142670 198.024185,472.052795 204.042130,488.988800 
	C204.818207,491.172913 205.299408,493.461761 205.126419,496.110504 
	C202.145645,492.485504 199.162643,488.862335 196.184464,485.235199 
	C131.806427,406.829895 67.429237,328.423920 3.046232,250.022690 
	C2.626980,249.512161 2.128714,249.066513 1.333667,248.795288 
	C1.000000,248.555557 1.000000,248.111099 1.000004,247.333313 
	C1.327749,247.283051 1.655592,247.814117 1.983217,247.813980 
	C39.134979,247.798691 76.286743,247.746140 113.438469,247.678146 
	C114.417885,247.676361 115.396942,247.482330 117.291656,247.280365 
	C89.158867,166.067627 61.139503,85.182312 33.120140,4.296996 
	C33.509754,4.099953 33.899368,3.902911 34.288979,3.705868 
	C63.060802,36.153320 91.832619,68.600769 121.020569,101.511536 
	C136.960541,119.551041 152.450958,137.156906 168.021118,154.691971 
	C176.951492,164.749329 186.011322,174.691727 195.120911,185.011276 
	C213.955139,206.541183 232.695145,227.733566 251.376526,248.977463 
	C252.626938,250.399414 253.433640,252.211578 254.021271,253.748138 
	C211.545456,253.657379 169.495102,253.656647 127.444748,253.677750 
	C125.630013,253.678665 123.815369,253.880737 121.626633,253.926041 
	C121.087189,254.246384 120.921806,254.629776 120.742676,255.341125 
	C121.075729,256.448425 121.422531,257.227753 121.750473,258.302979 
	C121.971611,259.126984 122.211617,259.655090 122.512711,260.553223 
	C132.846344,289.606934 143.118896,318.290619 153.391449,346.974274 
z"/>
<path fill="#FFFFFF" opacity="1.000000" stroke="none" 
	d="
M1.000000,607.468628 
	C33.804615,606.999573 66.609604,607.073181 99.413383,606.908203 
	C103.677315,606.886780 105.556915,607.822144 105.075806,612.406372 
	C104.695526,616.029907 104.767471,619.743713 105.058403,623.383911 
	C105.414497,627.839539 103.567528,629.105896 99.271919,629.075806 
	C76.293167,628.914734 53.311169,629.139160 30.334019,628.888611 
	C25.431276,628.835205 23.674091,629.868896 23.860107,635.153687 
	C24.276693,646.989380 23.974424,647.000000 35.621445,647.000000 
	C54.105263,647.000061 72.589088,646.989502 91.072891,647.006104 
	C97.197792,647.011597 97.956833,647.803040 97.999054,653.930542 
	C98.102882,669.000000 98.102882,669.000000 83.346451,669.000000 
	C65.528717,669.000061 47.710972,668.988098 29.893255,669.006470 
	C23.460218,669.013123 22.898018,669.805359 23.843803,676.344360 
	C24.126883,678.301575 24.358976,680.449402 23.853592,682.302307 
	C22.477051,687.349365 25.276438,688.015320 29.153288,688.009583 
	C45.305779,687.985657 61.458321,687.999878 77.610847,688.000061 
	C85.104286,688.000122 92.607681,688.230896 100.087227,687.908630 
	C104.207085,687.731140 105.263611,689.258240 105.067795,693.079956 
	C104.795479,698.394775 104.999481,703.733948 104.999802,709.531372 
	C70.406746,710.000000 35.813492,710.000000 1.000000,710.000000 
	C1.000000,675.979431 1.000000,641.958374 1.000000,607.468628 
z"/>
<path fill="#FFFFFF" opacity="1.000000" stroke="none" 
	d="
M475.468658,710.000000 
	C474.999176,677.521851 475.075378,645.043335 474.904938,612.566101 
	C474.882385,608.268250 475.893707,606.863708 480.419495,606.893616 
	C510.897644,607.095459 541.378296,607.091248 571.856628,606.902832 
	C576.707703,606.872864 578.502319,608.401489 578.062012,613.200867 
	C577.743774,616.669312 577.791504,620.206116 578.052673,623.684143 
	C578.373352,627.955139 576.487854,629.090027 572.470459,629.065552 
	C549.986450,628.928162 527.501160,628.999817 505.016266,629.000061 
	C496.491180,629.000122 495.532806,629.954041 496.053589,638.715759 
	C496.208191,641.316528 496.938080,643.882996 497.500946,647.000000 
	C499.473694,647.000000 501.259125,647.000000 503.044556,647.000000 
	C523.697327,647.000122 544.351135,647.108826 565.002075,646.914917 
	C569.513672,646.872559 571.485840,648.123047 571.064331,652.849365 
	C570.740112,656.484680 570.820679,660.183167 571.047546,663.833252 
	C571.291443,667.756348 569.723572,669.085938 565.823425,669.061401 
	C545.004883,668.930420 524.185120,668.998230 503.365814,669.000916 
	C496.955719,669.001709 496.184753,669.569214 496.079041,675.941406 
	C496.024658,679.222900 496.338867,682.625793 497.259369,685.745911 
	C497.583923,686.846069 500.204010,687.894714 501.782837,687.904846 
	C523.600586,688.044922 545.419556,687.968323 567.238159,688.012451 
	C579.317322,688.036865 577.921570,686.634094 577.996643,698.570007 
	C578.018616,702.067505 578.000000,705.565247 578.000000,709.531433 
	C543.979126,710.000000 509.958221,710.000000 475.468658,710.000000 
z"/>
<path fill="#FFFFFF" opacity="1.000000" stroke="none" 
	d="
M1339.468506,710.000000 
	C1339.333252,677.229553 1339.727539,644.459412 1339.917358,611.688110 
	C1339.939331,607.891846 1341.139893,606.913513 1344.798218,606.928284 
	C1375.777466,607.053284 1406.757446,607.043274 1437.736816,606.941895 
	C1441.539917,606.929443 1443.299194,608.061890 1443.050049,612.079956 
	C1442.813599,615.896057 1442.797974,619.752014 1443.054199,623.565613 
	C1443.332520,627.705383 1441.736938,629.098755 1437.588867,629.070068 
	C1415.770874,628.919067 1393.951294,628.999756 1372.132202,629.000000 
	C1368.670532,629.000061 1365.208862,629.000000 1361.870972,629.000000 
	C1361.579590,634.393311 1360.987305,639.257507 1361.307861,644.060669 
	C1361.380615,645.148926 1364.614868,646.855164 1366.407593,646.872864 
	C1386.725708,647.073120 1407.046387,646.999023 1427.366455,647.000549 
	C1434.996338,647.001160 1434.948853,647.004211 1435.025269,654.702271 
	C1435.053223,657.511230 1435.135376,660.356384 1435.601196,663.116150 
	C1436.424316,667.994385 1435.759644,668.981750 1430.602295,668.988464 
	C1409.615967,669.015869 1388.629761,668.996826 1367.643433,669.002441 
	C1361.324707,669.004150 1361.411621,669.008179 1361.918701,675.085999 
	C1362.081299,677.036133 1361.842407,679.073242 1361.459473,681.005554 
	C1360.271118,687.002502 1361.021729,687.993225 1367.278809,687.995911 
	C1390.430298,688.005981 1413.582764,688.106873 1436.732666,687.910767 
	C1441.424438,687.871033 1443.448730,689.111938 1443.080811,694.078491 
	C1442.712769,699.048035 1443.000000,704.066101 1443.000000,709.531433 
	C1408.645752,710.000000 1374.291504,710.000000 1339.468506,710.000000 
z"/>
<path fill="#FFFFFF" opacity="1.000000" stroke="none" 
	d="
M1515.468750,710.000000 
	C1514.150146,709.094299 1513.469238,707.817871 1512.423706,707.341187 
	C1503.494385,703.269958 1498.092529,696.847778 1497.957397,686.641724 
	C1497.936157,685.035522 1497.489136,683.435059 1497.114624,681.034912 
	C1504.213135,681.034912 1510.970947,680.984741 1517.725708,681.106934 
	C1518.458008,681.120117 1519.592285,681.991089 1519.826172,682.699890 
	C1521.214355,686.903809 1524.364014,688.012268 1528.328125,688.006653 
	C1541.818726,687.987427 1555.309448,688.041870 1568.799683,687.982239 
	C1576.338135,687.948914 1578.009399,686.119263 1578.000000,678.350647 
	C1577.991455,671.237427 1575.919922,669.043579 1568.832764,669.017822 
	C1553.676880,668.962769 1538.519531,669.111206 1523.364990,668.960205 
	C1513.450684,668.861450 1504.801514,665.351990 1500.378906,656.103943 
	C1496.616089,648.235718 1496.352783,639.392639 1497.328979,630.713623 
	C1497.656616,627.800781 1498.422485,624.853210 1499.500122,622.123718 
	C1503.770874,611.307678 1512.424194,607.101440 1523.458496,607.025757 
	C1539.279907,606.917297 1555.108521,607.265076 1570.923096,606.915771 
	C1584.391968,606.618408 1594.524048,611.067261 1599.498657,624.356567 
	C1599.588989,624.597839 1600.029419,624.708008 1600.653198,624.939697 
	C1601.000000,628.361267 1601.000000,631.722595 1600.531494,635.541931 
	C1594.236938,635.999512 1588.396118,636.227661 1582.594360,635.853271 
	C1580.946411,635.746887 1579.412720,633.884094 1577.825195,632.828735 
	C1575.906128,631.552856 1574.007080,629.211914 1572.062622,629.173218 
	C1556.754761,628.868225 1541.437744,628.945862 1526.125000,629.085938 
	C1524.472046,629.101074 1521.562134,630.034790 1521.399170,630.934448 
	C1520.649780,635.070374 1519.810425,639.563904 1520.804565,643.470947 
	C1521.245972,645.205750 1525.925171,646.781921 1528.716675,646.845154 
	C1543.357178,647.176636 1558.026001,646.572815 1572.652100,647.139404 
	C1583.858276,647.573486 1593.814575,651.173889 1598.546509,662.885559 
	C1598.906128,663.775452 1600.161255,664.303650 1601.000000,665.000000 
	C1601.000000,679.949768 1601.000000,694.899475 1601.000000,710.000000 
	C1572.645874,710.000000 1544.291626,710.000000 1515.468750,710.000000 
z"/>
<path fill="#FFFFFF" opacity="1.000000" stroke="none" 
	d="
M948.468567,710.000000 
	C947.999207,677.532104 948.072021,645.063782 947.908142,612.596680 
	C947.886719,608.350220 948.813538,606.845581 953.386902,606.890869 
	C977.027893,607.124573 1000.674805,606.806946 1024.314331,607.106262 
	C1032.334351,607.207825 1039.930664,609.116821 1045.594727,615.939392 
	C1049.412598,620.538086 1049.664307,625.953247 1050.508057,631.243408 
	C1051.803833,639.368347 1051.682251,647.597656 1048.263672,655.204041 
	C1043.908936,664.893372 1035.420532,668.421936 1025.363281,668.992188 
	C1023.704651,669.086182 1022.039612,669.064941 1020.380920,669.157532 
	C1020.114624,669.172424 1019.866150,669.506775 1019.042175,670.105957 
	C1020.220703,671.433289 1021.295044,672.771362 1022.499512,673.979675 
	C1032.843628,684.356750 1043.226685,694.695312 1053.552368,705.090576 
	C1054.814575,706.361206 1055.808594,707.898254 1056.963379,709.655884 
	C1046.979126,710.000000 1036.958130,710.000000 1026.432373,709.655884 
	C1024.810181,707.900146 1023.816345,706.366028 1022.556091,705.096191 
	C1013.066467,695.534607 1003.273499,686.258728 994.096436,676.408142 
	C988.929871,670.862488 983.430298,668.237854 975.735291,668.804199 
	C971.006287,669.152222 969.830811,670.675659 969.920044,675.075623 
	C970.156128,686.712830 970.000000,698.357971 970.000000,710.000000 
	C962.979065,710.000000 955.958069,710.000000 948.468567,710.000000 
M990.500122,629.000000 
	C983.558411,629.000000 976.616760,629.000000 970.000122,629.000000 
	C970.000122,633.742310 970.143860,637.864868 969.956665,641.972412 
	C969.793823,645.544128 971.034241,647.085388 974.805908,647.053650 
	C990.278809,646.923584 1005.753479,647.045715 1021.227112,646.976746 
	C1027.352905,646.949402 1029.016235,644.948914 1029.000122,638.198853 
	C1028.983154,631.174072 1027.189087,629.054077 1020.950256,629.015991 
	C1011.133850,628.955994 1001.316772,629.000061 990.500122,629.000000 
z"/>
<path fill="#FFFFFF" opacity="1.000000" stroke="none" 
	d="
M633.468506,710.000000 
	C632.999207,677.714722 633.132385,645.428406 632.863098,613.145325 
	C632.819214,607.883301 634.433655,606.833191 639.331177,606.886963 
	C662.127808,607.137146 684.928711,607.007202 707.728088,606.994751 
	C726.815735,606.984314 734.122986,616.748047 735.847595,634.009827 
	C736.809937,643.641296 735.808533,653.248962 728.568909,660.967041 
	C723.345032,666.536133 716.832886,668.758972 709.407410,669.045105 
	C708.038208,669.097900 706.691284,669.726257 705.334045,670.088989 
	C706.047668,671.399902 706.506287,672.962830 707.514282,673.982910 
	C718.166992,684.763062 728.924438,695.439758 739.586304,706.210999 
	C740.325806,706.958130 740.534546,708.230591 740.994995,709.629395 
	C730.979126,710.000000 720.958191,710.000000 710.431396,709.644836 
	C709.321960,708.121094 708.967651,706.699646 708.077087,705.822571 
	C697.697571,695.600159 687.010132,685.678894 676.904114,675.195862 
	C672.532104,670.660767 668.161377,668.389160 661.742432,668.865295 
	C653.916687,669.445801 653.885742,669.034973 654.905579,676.697021 
	C655.079895,678.006775 655.031311,679.355591 654.988464,680.683228 
	C654.672852,690.455933 654.332581,700.227844 654.000000,710.000000 
	C647.312378,710.000000 640.624695,710.000000 633.468506,710.000000 
M657.875061,646.993835 
	C673.845703,646.995850 689.816406,647.026611 705.786926,646.985229 
	C711.827087,646.969543 714.117676,644.014282 713.998657,636.677856 
	C713.906799,631.011719 711.878662,629.012878 706.103455,629.005371 
	C692.960938,628.988403 679.816711,628.866333 666.676331,629.035400 
	C651.781433,629.226929 654.158813,626.004944 654.138245,643.123108 
	C654.136719,644.400757 655.975708,645.680603 657.875061,646.993835 
z"/>
<path fill="#FFFFFF" opacity="1.000000" stroke="none" 
	d="
M1201.468628,710.000000 
	C1200.218384,709.322021 1199.523560,708.208374 1198.641846,708.032410 
	C1187.795044,705.867798 1182.786133,693.921875 1181.989990,685.089294 
	C1181.726318,682.164185 1182.726929,680.770447 1185.891357,680.953735 
	C1189.377441,681.155701 1192.884399,680.997864 1196.382202,680.997681 
	C1200.101562,680.997498 1203.846680,680.169922 1205.597534,685.366821 
	C1206.100342,686.859497 1210.148560,687.842896 1212.591064,687.883850 
	C1226.578491,688.118042 1240.572510,688.063354 1254.563232,687.966309 
	C1260.375244,687.926025 1262.986084,684.911560 1263.000122,678.771179 
	C1263.015259,672.140503 1260.530151,669.073730 1254.605957,669.035828 
	C1238.949463,668.935913 1223.291870,669.040039 1207.634888,668.988770 
	C1192.623169,668.939575 1182.268677,658.731873 1182.059814,643.264526 
	C1181.957642,635.692383 1181.547485,628.216064 1184.688721,620.723755 
	C1187.689453,613.566284 1197.599976,607.159302 1204.664185,607.076416 
	C1223.483521,606.855713 1242.307861,606.891174 1261.128540,607.039734 
	C1273.386963,607.136475 1282.465454,615.662109 1284.062744,628.060364 
	C1284.209839,629.202820 1284.717896,630.297302 1284.882690,631.439331 
	C1285.280884,634.200439 1284.434692,636.020813 1281.240479,635.998718 
	C1276.410400,635.965332 1271.569702,636.164490 1266.756104,635.881042 
	C1265.400024,635.801147 1263.504272,634.686218 1262.925415,633.516663 
	C1261.181396,629.993042 1258.502197,628.946838 1254.829956,628.967102 
	C1240.339111,629.047180 1225.847778,628.978516 1211.356567,629.011230 
	C1205.917969,629.023499 1204.086426,631.130676 1204.000122,637.232605 
	C1203.896973,644.514832 1205.634888,646.931702 1211.496948,646.968811 
	C1225.987549,647.060608 1240.487427,646.704102 1254.966919,647.116516 
	C1263.042114,647.346619 1271.588379,647.795410 1277.313721,654.755310 
	C1280.120972,658.167969 1282.990601,662.283081 1283.748047,666.458374 
	C1285.007202,673.399780 1285.459839,680.743896 1284.673706,687.741028 
	C1283.441772,698.706421 1276.163452,705.405273 1266.068848,709.645386 
	C1244.645752,710.000000 1223.291504,710.000000 1201.468628,710.000000 
z"/>
<path fill="#FFFFFF" opacity="1.000000" stroke="none" 
	d="
M159.468628,710.000000 
	C159.000214,677.864929 159.084229,645.729370 158.910095,613.595215 
	C158.884033,608.786133 160.113266,607.388245 165.204117,606.726196 
	C173.977142,605.585388 178.990677,610.200317 184.277344,615.687195 
	C193.100052,624.844116 202.216080,633.718323 211.208923,642.711304 
	C219.656204,651.158569 228.096191,659.613159 236.561615,668.042236 
	C237.569717,669.046082 238.717590,669.909546 240.682755,671.594238 
	C240.823990,668.812500 240.985870,667.087524 240.987701,665.362366 
	C241.006393,647.713013 241.156693,630.061340 240.890778,612.416016 
	C240.822418,607.880005 242.259842,606.504639 246.573502,606.933105 
	C249.871048,607.260742 253.227188,606.989136 256.557220,607.001648 
	C262.476044,607.023926 262.977234,607.506104 262.989319,613.656433 
	C263.015808,627.143127 262.997406,640.629944 262.997559,654.116699 
	C262.997772,672.432007 262.998260,690.747375 262.999329,709.531372 
	C257.311951,710.000000 251.623917,710.000000 245.463348,709.630310 
	C242.084549,705.766479 239.414383,702.039062 236.231705,698.818054 
	C221.380081,683.787659 206.418945,668.864807 191.416412,653.984802 
	C188.548264,651.140076 185.317429,648.661011 182.000000,645.793762 
	C182.000000,667.685059 182.000000,688.842529 182.000000,710.000000 
	C174.645752,710.000000 167.291504,710.000000 159.468628,710.000000 
z"/>
<path fill="#FFFFFF" opacity="1.000000" stroke="none" 
	d="
M790.468567,710.000000 
	C790.000000,677.863281 789.996948,645.726624 790.002563,613.589905 
	C790.003723,607.014404 790.018738,607.001709 796.744812,607.000183 
	C820.389404,606.994995 844.035461,607.155151 867.678101,606.939880 
	C881.289368,606.816040 893.390381,618.231262 892.995056,630.362915 
	C892.776672,637.065308 893.092651,643.888611 891.919434,650.433594 
	C889.853516,661.958984 880.121277,668.545776 868.456055,668.877747 
	C851.652039,669.355957 834.822083,669.149292 818.007996,668.905396 
	C813.236206,668.836243 811.905396,670.767090 811.955872,675.094788 
	C812.088074,686.416016 812.000183,697.739868 812.000000,709.531372 
	C804.979065,710.000000 797.958069,710.000000 790.468567,710.000000 
M822.558105,647.000000 
	C836.205505,647.000000 849.854370,647.095825 863.498901,646.898376 
	C865.585083,646.868164 869.113037,645.886902 869.455200,644.649109 
	C870.512451,640.824829 871.258911,636.421753 870.276123,632.736877 
	C869.793884,630.929016 865.249695,629.233154 862.501709,629.164246 
	C848.363831,628.809875 834.212341,628.999756 820.065613,629.000122 
	C812.000732,629.000366 811.990295,629.000793 812.002625,637.258179 
	C812.018555,647.910583 811.026672,646.985291 822.558105,647.000000 
z"/>
<path fill="#FFFFFF" opacity="1.000000" stroke="none" 
	d="
M358.468567,710.000000 
	C357.999969,685.000793 357.908356,660.000916 358.084229,635.002991 
	C358.115967,630.494568 356.883942,628.740112 352.153625,628.907715 
	C343.165192,629.226318 334.157440,629.012634 325.157745,628.995850 
	C317.857513,628.982300 317.008148,628.146179 317.000671,621.106140 
	C316.997345,617.939575 317.130859,614.766296 316.967682,611.608215 
	C316.786377,608.099976 318.363464,606.952026 321.738556,606.959473 
	C352.904083,607.028625 384.069885,607.027649 415.235413,606.959534 
	C418.585205,606.952209 420.180237,608.049316 420.037933,611.581421 
	C419.870361,615.741211 419.848358,619.920105 420.045532,624.077332 
	C420.220337,627.762756 418.746857,629.109192 415.073608,629.052124 
	C405.076324,628.896606 395.073273,629.107239 385.076385,628.939453 
	C381.727783,628.883240 379.815796,629.339111 379.835419,633.397278 
	C379.865875,639.687805 379.098450,645.979370 379.044525,652.273743 
	C378.914703,667.438843 378.937927,682.606262 379.047821,697.771667 
	C379.075287,701.564087 379.664246,705.352417 379.997589,709.571289 
	C372.979034,710.000000 365.958099,710.000000 358.468567,710.000000 
z"/>
<path fill="#FFFFFF" opacity="1.000000" stroke="none" 
	d="
M1105.468628,710.000000 
	C1105.000000,675.947144 1105.000000,641.894226 1105.000000,607.042725 
	C1111.946167,607.042725 1118.348267,606.970276 1124.744019,607.137573 
	C1125.514038,607.157715 1126.689575,608.359985 1126.916260,609.215881 
	C1127.503784,611.433533 1127.950195,613.763123 1127.955566,616.049194 
	C1128.021973,644.346375 1128.001709,672.643738 1127.995605,700.941101 
	C1127.994995,703.708740 1127.941406,706.476440 1127.956299,709.622070 
	C1120.645752,710.000000 1113.291504,710.000000 1105.468628,710.000000 
z"/>
<path fill="#F7F7F7" opacity="1.000000" stroke="none" 
	d="
M182.468658,710.000000 
	C182.000000,688.842529 182.000000,667.685059 182.000000,645.793762 
	C185.317429,648.661011 188.548264,651.140076 191.416412,653.984802 
	C206.418945,668.864807 221.380081,683.787659 236.231705,698.818054 
	C239.414383,702.039062 242.084549,705.766479 244.995422,709.630310 
	C224.312439,710.000000 203.624878,710.000000 182.468658,710.000000 
z"/>
<path fill="#F7F7F7" opacity="1.000000" stroke="none" 
	d="
M970.468628,710.000000 
	C970.000000,698.357971 970.156128,686.712830 969.920044,675.075623 
	C969.830811,670.675659 971.006287,669.152222 975.735291,668.804199 
	C983.430298,668.237854 988.929871,670.862488 994.096436,676.408142 
	C1003.273499,686.258728 1013.066467,695.534607 1022.556091,705.096191 
	C1023.816345,706.366028 1024.810181,707.900146 1025.963745,709.655884 
	C1007.645752,710.000000 989.291565,710.000000 970.468628,710.000000 
z"/>
<path fill="#F7F7F7" opacity="1.000000" stroke="none" 
	d="
M654.468689,710.000000 
	C654.332581,700.227844 654.672852,690.455933 654.988464,680.683228 
	C655.031311,679.355591 655.079895,678.006775 654.905579,676.697021 
	C653.885742,669.034973 653.916687,669.445801 661.742432,668.865295 
	C668.161377,668.389160 672.532104,670.660767 676.904114,675.195862 
	C687.010132,685.678894 697.697571,695.600159 708.077087,705.822571 
	C708.967651,706.699646 709.321960,708.121094 709.962708,709.644836 
	C691.645752,710.000000 673.291565,710.000000 654.468689,710.000000 
z"/>
<path fill="#F7F7F7" opacity="1.000000" stroke="none" 
	d="
M1601.000000,664.531372 
	C1600.161255,664.303650 1598.906128,663.775452 1598.546509,662.885559 
	C1593.814575,651.173889 1583.858276,647.573486 1572.652100,647.139404 
	C1558.026001,646.572815 1543.357178,647.176636 1528.716675,646.845154 
	C1525.925171,646.781921 1521.245972,645.205750 1520.804565,643.470947 
	C1519.810425,639.563904 1520.649780,635.070374 1521.399170,630.934448 
	C1521.562134,630.034790 1524.472046,629.101074 1526.125000,629.085938 
	C1541.437744,628.945862 1556.754761,628.868225 1572.062622,629.173218 
	C1574.007080,629.211914 1575.906128,631.552856 1577.825195,632.828735 
	C1579.412720,633.884094 1580.946411,635.746887 1582.594360,635.853271 
	C1588.396118,636.227661 1594.236938,635.999512 1600.531494,636.000000 
	C1601.000000,645.354248 1601.000000,654.708435 1601.000000,664.531372 
z"/>
<path fill="#FFFFFF" opacity="1.000000" stroke="none" 
	d="
M625.000000,101.999496 
	C649.332031,101.999069 673.164551,102.095421 696.995972,101.979019 
	C752.618774,101.707352 808.241272,101.101952 863.863464,101.147858 
	C879.692688,101.160919 895.459290,102.474564 911.042908,106.628029 
	C933.142395,112.518150 952.805481,122.002663 968.505188,138.972931 
	C977.483276,148.677628 984.127380,159.685257 988.983887,172.010406 
	C994.158020,185.141388 996.012268,198.770996 997.035217,212.655075 
	C997.347778,216.897278 995.560547,218.205002 991.497742,218.066437 
	C984.506226,217.828018 977.499878,217.928177 970.501343,218.013763 
	C946.043457,218.312805 921.586609,218.690842 897.128662,218.982773 
	C890.686035,219.059677 890.177490,218.355423 889.980957,211.762894 
	C889.629395,199.971176 883.820801,188.845428 868.133728,188.894318 
	C847.344177,188.959122 826.551636,188.006927 805.761902,188.061310 
	C741.972900,188.228180 678.184570,188.652206 614.396240,189.017532 
	C605.971985,189.065781 598.465698,191.473373 594.249390,199.404404 
	C592.591248,202.523315 591.346191,206.329727 591.397949,209.800903 
	C591.545776,219.706543 591.436523,229.812210 593.429443,239.424301 
	C594.729797,245.696182 600.779602,249.957993 607.299011,251.861908 
	C611.234131,253.011108 615.414368,253.902298 619.486755,253.911804 
	C675.483337,254.042542 731.480774,254.117493 787.477173,253.956055 
	C822.434631,253.855286 857.395813,252.834213 892.345886,253.181381 
	C914.556213,253.402023 936.401428,257.305908 955.577393,269.453125 
	C969.858215,278.499390 980.613159,290.964050 986.925537,307.017090 
	C993.426086,323.548798 997.225342,340.523163 997.029907,358.357513 
	C996.887573,371.354492 997.880371,384.427734 996.804504,397.336731 
	C994.874756,420.489868 988.818115,442.580505 972.853027,460.374359 
	C964.414551,469.779449 953.848450,476.519806 941.877808,481.337738 
	C924.064941,488.507050 905.651306,490.095551 886.755920,490.061462 
	C807.260498,489.918152 727.764038,490.177765 648.269653,489.861237 
	C630.560852,489.790741 612.745361,488.912262 595.179626,486.764587 
	C566.466187,483.253937 541.595154,471.318695 522.476990,448.933472 
	C512.788391,437.589264 505.498840,424.754059 502.199310,410.215698 
	C499.654297,399.001953 498.681244,387.431915 496.995636,376.022308 
	C496.417786,372.111053 497.967743,370.888550 501.970032,370.914032 
	C528.134216,371.080780 554.300049,371.042267 580.465027,370.955261 
	C584.924622,370.940430 589.395447,370.493439 593.837830,370.025085 
	C599.822510,369.394043 600.659363,370.163849 601.035156,376.175079 
	C601.671204,386.348816 604.916931,395.014465 615.465698,398.913116 
	C617.119263,399.524231 618.950317,399.945312 620.702576,399.957001 
	C678.491150,400.342621 736.280151,400.673309 794.069214,400.994812 
	C802.485718,401.041626 810.904053,400.903229 819.319214,401.020996 
	C838.611206,401.290985 857.903931,401.961517 877.191467,401.817719 
	C882.930847,401.774933 888.791504,400.001556 894.351196,398.244568 
	C901.891724,395.861572 904.256531,389.244995 904.880676,382.254730 
	C905.441711,375.971832 905.389832,369.570465 904.923706,363.272003 
	C903.733337,347.185181 895.406982,338.172089 879.973511,338.045776 
	C857.976196,337.865723 835.976257,337.999786 813.977478,338.000000 
	C747.814453,338.000641 681.649048,337.698334 615.490051,338.215973 
	C598.999451,338.345001 582.777588,337.854919 566.777710,333.942078 
	C547.841492,329.311188 531.478271,320.014282 519.658691,304.391602 
	C512.816528,295.347839 507.815063,285.130737 504.554535,273.885437 
	C500.397308,259.547546 498.766144,244.909683 498.296082,230.306183 
	C497.681488,211.211792 498.407257,191.980515 502.993683,173.216599 
	C507.148987,156.216568 514.286743,140.827698 527.066711,128.358109 
	C539.835571,115.899353 555.297607,109.025352 572.384399,104.955406 
	C589.614929,100.851219 607.089478,102.262184 625.000000,101.999496 
z"/>
<path fill="#FFFFFF" opacity="1.000000" stroke="none" 
	d="
M1466.090332,101.845001 
	C1476.578247,103.940994 1486.739746,105.528793 1496.663696,108.051147 
	C1509.623779,111.345215 1522.016602,116.091499 1533.710449,122.916130 
	C1544.716553,129.339371 1554.597534,136.924911 1563.483765,145.962723 
	C1574.544434,157.212372 1583.005859,170.121124 1588.832153,184.791199 
	C1594.135742,198.145126 1596.941650,212.027344 1598.021973,226.307419 
	C1598.283936,229.770966 1598.617065,233.231201 1599.012939,236.682022 
	C1599.501953,240.944931 1597.493042,242.091751 1593.469971,242.065308 
	C1571.971069,241.924072 1550.470581,241.999176 1528.970703,241.999344 
	C1519.804077,241.999405 1510.633789,241.847061 1501.472534,242.068207 
	C1497.382568,242.166946 1496.172119,240.774811 1495.873169,236.637726 
	C1494.762573,221.263779 1491.244019,206.759155 1478.137573,196.641693 
	C1468.867310,189.485550 1458.055542,186.138443 1446.625488,186.108566 
	C1367.792969,185.902542 1288.958252,185.753403 1210.127686,186.195358 
	C1193.099243,186.290817 1178.523315,193.537277 1170.929810,209.780502 
	C1167.867676,216.330719 1166.284546,224.156143 1166.210693,231.423355 
	C1165.781250,273.752167 1165.570923,316.094360 1166.241821,358.416870 
	C1166.465454,372.520416 1170.989746,386.015594 1185.828003,391.996246 
	C1192.466797,394.672089 1199.888062,396.761627 1206.963867,396.790527 
	C1287.628906,397.120117 1368.296021,397.115631 1448.961548,396.852417 
	C1458.945679,396.819855 1469.167114,396.148834 1478.338135,390.893982 
	C1487.940674,385.391907 1492.358521,376.746643 1493.981567,366.266022 
	C1494.386475,363.652283 1494.839600,361.027069 1494.964722,358.392609 
	C1495.315186,351.006927 1495.252686,351.063354 1502.448242,350.989624 
	C1532.573975,350.680878 1562.700684,350.418274 1592.823242,349.913483 
	C1597.643799,349.832733 1599.312500,351.328674 1599.067139,356.172882 
	C1597.943726,378.355743 1593.870483,399.750458 1583.668945,419.748260 
	C1572.539307,441.564941 1555.832764,457.576447 1534.554321,469.508240 
	C1522.355591,476.348663 1509.428955,480.908447 1496.092896,484.253906 
	C1486.368164,486.693512 1476.249878,488.612640 1466.269653,488.803314 
	C1424.320190,489.604523 1382.356689,489.669617 1340.398315,490.002136 
	C1298.272949,490.336029 1256.146851,490.963165 1214.022339,490.878662 
	C1192.062500,490.834595 1170.299805,487.560852 1149.522705,480.447906 
	C1132.379517,474.579041 1116.507690,465.931366 1102.843262,453.501587 
	C1088.984131,440.894623 1078.530884,426.319244 1071.593994,408.785400 
	C1066.095459,394.887299 1062.469482,380.834930 1061.999023,365.948090 
	C1061.626343,354.157440 1061.093872,342.365326 1061.045532,330.572174 
	C1060.913452,298.406189 1060.555054,266.230042 1061.223999,234.077408 
	C1061.483398,221.599579 1063.059082,208.867584 1066.141113,196.788651 
	C1072.555542,171.647888 1085.766968,150.473785 1106.305664,133.966400 
	C1118.386230,124.256844 1131.706665,117.355705 1146.141724,112.002235 
	C1170.070435,103.127945 1194.860962,100.062492 1220.142334,100.028557 
	C1283.641968,99.943321 1347.141968,99.931496 1410.641479,100.046928 
	C1427.683716,100.077904 1444.725342,100.656181 1461.765991,101.034630 
	C1463.068115,101.063553 1464.360962,101.503532 1466.090332,101.845001 
z"/>
<path fill="#FFFFFF" opacity="1.000000" stroke="none" 
	d="
M121.769333,258.007080 
	C121.422531,257.227753 121.075729,256.448425 121.007523,255.248505 
	C121.524307,254.548309 121.762505,254.268707 122.000694,253.989105 
	C123.815369,253.880737 125.630013,253.678665 127.444748,253.677750 
	C169.495102,253.656647 211.545456,253.657379 254.530792,253.794586 
	C273.588379,253.622208 291.714081,253.425690 309.832306,252.947067 
	C318.822266,252.709595 328.155548,244.122482 328.938141,235.044052 
	C329.721161,225.960983 330.357727,216.766525 329.833405,207.691681 
	C328.956085,192.506409 320.010681,183.974854 304.407562,183.989792 
	C270.244690,184.022522 236.081726,183.986343 201.918854,184.028870 
	C199.616592,184.031738 197.314865,184.457047 195.012878,184.685883 
	C186.011322,174.691727 176.951492,164.749329 168.021118,154.691971 
	C152.450958,137.156906 136.960541,119.551041 121.307472,101.643898 
	C124.450333,100.875374 127.721992,100.059723 130.994568,100.056046 
	C197.144531,99.981773 263.300568,99.484680 329.441681,100.252777 
	C356.211975,100.563660 381.897339,107.076035 402.318512,126.082153 
	C412.846527,135.880661 420.315399,148.033249 425.034882,161.823334 
	C430.868378,178.868546 432.685822,196.383316 431.984619,214.247192 
	C431.392700,229.327271 431.756042,244.550720 429.737793,259.445282 
	C426.304199,284.784698 417.411957,308.195435 397.099976,325.140259 
	C383.246582,336.697083 367.055298,343.789825 348.662140,345.043732 
	C339.636047,345.659027 330.639496,346.707764 320.982819,347.621552 
	C325.430145,353.382172 329.598267,358.817932 333.805664,364.223175 
	C342.255371,375.078522 350.727356,385.916473 359.188538,396.762848 
	C370.909637,411.788025 382.658936,426.791290 394.341003,441.846741 
	C405.616577,456.378326 416.847076,470.945160 428.011444,485.562164 
	C428.912933,486.742462 429.149139,488.430878 429.694519,489.883179 
	C428.174072,490.255035 426.654297,490.948334 425.133148,490.951385 
	C393.641174,491.014679 362.148438,491.082733 330.658142,490.844818 
	C328.086700,490.825409 324.687775,489.287567 323.105042,487.309662 
	C312.133514,473.598633 301.606354,459.533386 290.808868,445.681427 
	C280.423889,432.358734 269.818298,419.207977 259.430695,405.887268 
	C246.188873,388.906433 233.005081,371.879364 219.935120,354.766144 
	C216.068954,349.703949 212.199524,346.447144 204.901260,346.766266 
	C188.104553,347.500702 171.253571,346.994354 153.908035,346.982910 
	C143.118896,318.290619 132.846344,289.606934 122.813797,260.411926 
	C122.625648,259.269440 122.197495,258.638245 121.769333,258.007080 
z"/>
<path fill="#F7F7F7" opacity="1.000000" stroke="none" 
	d="
M195.120911,185.011276 
	C197.314865,184.457047 199.616592,184.031738 201.918854,184.028870 
	C236.081726,183.986343 270.244690,184.022522 304.407562,183.989792 
	C320.010681,183.974854 328.956085,192.506409 329.833405,207.691681 
	C330.357727,216.766525 329.721161,225.960983 328.938141,235.044052 
	C328.155548,244.122482 318.822266,252.709595 309.832306,252.947067 
	C291.714081,253.425690 273.588379,253.622208 254.956238,253.888672 
	C253.433640,252.211578 252.626938,250.399414 251.376526,248.977463 
	C232.695145,227.733566 213.955139,206.541183 195.120911,185.011276 
z"/>
<path fill="#F7F7F7" opacity="1.000000" stroke="none" 
	d="
M121.750473,258.302979 
	C122.197495,258.638245 122.625648,259.269440 122.752716,260.041870 
	C122.211617,259.655090 121.971611,259.126984 121.750473,258.302979 
z"/>
<path fill="#F7F7F7" opacity="1.000000" stroke="none" 
	d="
M121.626633,253.926056 
	C121.762505,254.268707 121.524307,254.548309 121.021271,254.920547 
	C120.921806,254.629776 121.087189,254.246384 121.626633,253.926056 
z"/>
<path fill="#F7F7F7" opacity="1.000000" stroke="none" 
	d="
M991.000061,629.000000 
	C1001.316772,629.000061 1011.133850,628.955994 1020.950256,629.015991 
	C1027.189087,629.054077 1028.983154,631.174072 1029.000122,638.198853 
	C1029.016235,644.948914 1027.352905,646.949402 1021.227112,646.976746 
	C1005.753479,647.045715 990.278809,646.923584 974.805908,647.053650 
	C971.034241,647.085388 969.793823,645.544128 969.956665,641.972412 
	C970.143860,637.864868 970.000122,633.742310 970.000122,629.000000 
	C976.616760,629.000000 983.558411,629.000000 991.000061,629.000000 
z"/>
<path fill="#F7F7F7" opacity="1.000000" stroke="none" 
	d="
M657.417114,646.976624 
	C655.975708,645.680603 654.136719,644.400757 654.138245,643.123108 
	C654.158813,626.004944 651.781433,629.226929 666.676331,629.035400 
	C679.816711,628.866333 692.960938,628.988403 706.103455,629.005371 
	C711.878662,629.012878 713.906799,631.011719 713.998657,636.677856 
	C714.117676,644.014282 711.827087,646.969543 705.786926,646.985229 
	C689.816406,647.026611 673.845703,646.995850 657.417114,646.976624 
z"/>
<path fill="#F7F7F7" opacity="1.000000" stroke="none" 
	d="
M822.068604,647.000000 
	C811.026672,646.985291 812.018555,647.910583 812.002625,637.258179 
	C811.990295,629.000793 812.000732,629.000366 820.065613,629.000122 
	C834.212341,628.999756 848.363831,628.809875 862.501709,629.164246 
	C865.249695,629.233154 869.793884,630.929016 870.276123,632.736877 
	C871.258911,636.421753 870.512451,640.824829 869.455200,644.649109 
	C869.113037,645.886902 865.585083,646.868164 863.498901,646.898376 
	C849.854370,647.095825 836.205505,647.000000 822.068604,647.000000 
z"/>
</svg>
